<svg width="21" height="21" viewBox="0 0 21 21" fill="none" xmlns="http://www.w3.org/2000/svg">
<circle cx="10.5" cy="10.5" r="10.5" fill="currentColor"/>
<path d="M16.8945 5.199C17.0505 5.33776 17.145 5.53274 17.1572 5.74111C17.1695 5.94948 17.0985 6.15419 16.9599 6.31028L8.55956 15.7613C8.48567 15.8444 8.395 15.911 8.29353 15.9566C8.19206 16.0021 8.08208 16.0257 7.97084 16.0257C7.8596 16.0257 7.74963 16.0021 7.64816 15.9566C7.54668 15.911 7.45602 15.8444 7.38212 15.7613L3.18195 11.0358C3.0513 10.8786 2.98686 10.6768 3.00223 10.473C3.01761 10.2693 3.1116 10.0794 3.26434 9.94365C3.41709 9.80788 3.61663 9.73679 3.82082 9.74542C4.025 9.75404 4.21784 9.8417 4.35859 9.98986L7.97045 14.053L15.7833 5.26358C15.9221 5.10776 16.1172 5.01344 16.3255 5.00133C16.5339 4.98922 16.7386 5.06031 16.8945 5.199Z" fill="white"/>
</svg>
