<svg width="22" height="22" viewBox="0 0 22 22" fill="none" xmlns="http://www.w3.org/2000/svg">
<path fill-rule="evenodd" clip-rule="evenodd" d="M0 4C0 1.79086 1.79086 0 4 0H18C20.2091 0 22 1.79086 22 4V18C22 20.2091 20.2091 22 18 22H4C1.79086 22 0 20.2091 0 18V4ZM4 2C2.89543 2 2 2.89543 2 4V18C2 19.1046 2.89543 20 4 20H18C19.1046 20 20 19.1046 20 18V4C20 2.89543 19.1046 2 18 2H4Z" fill="currentColor"/>
<path d="M7.6001 6.2C7.6001 5.53726 8.13736 5 8.8001 5H16.8C17.4627 5 18 5.53726 18 6.2C18 6.86274 17.4627 7.4 16.8 7.4H8.8001C8.13736 7.4 7.6001 6.86274 7.6001 6.2Z" fill="currentColor"/>
<path d="M7.6001 11C7.6001 10.3373 8.13736 9.80005 8.8001 9.80005H16.8C17.4627 9.80005 18 10.3373 18 11C18 11.6628 17.4627 12.2 16.8 12.2H8.8001C8.13736 12.2 7.6001 11.6628 7.6001 11Z" fill="currentColor"/>
<path d="M7.6001 15.8001C7.6001 15.1374 8.13736 14.6001 8.8001 14.6001H16.8C17.4627 14.6001 18 15.1374 18 15.8001C18 16.4628 17.4627 17.0001 16.8 17.0001H8.8001C8.13736 17.0001 7.6001 16.4628 7.6001 15.8001Z" fill="currentColor"/>
<path d="M6.39999 6.2C6.39999 6.86274 5.86274 7.4 5.2 7.4C4.53726 7.4 4 6.86274 4 6.2C4 5.53726 4.53726 5 5.2 5C5.86274 5 6.39999 5.53726 6.39999 6.2Z" fill="currentColor"/>
<path d="M6.39999 11C6.39999 11.6628 5.86274 12.2 5.2 12.2C4.53726 12.2 4 11.6628 4 11C4 10.3373 4.53726 9.80002 5.2 9.80002C5.86274 9.80002 6.39999 10.3373 6.39999 11Z" fill="currentColor"/>
<path d="M6.39999 15.8001C6.39999 16.4628 5.86274 17.0001 5.2 17.0001C4.53726 17.0001 4 16.4628 4 15.8001C4 15.1373 4.53726 14.6001 5.2 14.6001C5.86274 14.6001 6.39999 15.1373 6.39999 15.8001Z" fill="currentColor"/>
</svg>
