<svg width="22" height="22" viewBox="0 0 22 22" fill="none" xmlns="http://www.w3.org/2000/svg">
<path d="M0 3C0 1.34315 1.34315 0 3 0H19C20.6569 0 22 1.34315 22 3V19C22 20.6569 20.6569 22 19 22H3C1.34315 22 0 20.6569 0 19V3Z" fill="currentColor"/>
<path d="M7.6001 6.19997C7.6001 5.53723 8.13736 4.99997 8.8001 4.99997H16.8C17.4627 4.99997 18 5.53723 18 6.19997C18 6.86271 17.4627 7.39997 16.8 7.39997H8.8001C8.13736 7.39997 7.6001 6.86271 7.6001 6.19997Z" fill="white"/>
<path d="M7.6001 11.0001C7.6001 10.3373 8.13736 9.80008 8.8001 9.80008H16.8C17.4627 9.80008 18 10.3373 18 11.0001C18 11.6628 17.4627 12.2001 16.8 12.2001H8.8001C8.13736 12.2001 7.6001 11.6628 7.6001 11.0001Z" fill="white"/>
<path d="M7.6001 15.8001C7.6001 15.1374 8.13736 14.6001 8.8001 14.6001H16.8C17.4627 14.6001 18 15.1374 18 15.8001C18 16.4628 17.4627 17.0001 16.8 17.0001H8.8001C8.13736 17.0001 7.6001 16.4628 7.6001 15.8001Z" fill="white"/>
<path d="M6.39999 6.19997C6.39999 6.86271 5.86274 7.39997 5.2 7.39997C4.53726 7.39997 4 6.86271 4 6.19997C4 5.53723 4.53726 4.99997 5.2 4.99997C5.86274 4.99997 6.39999 5.53723 6.39999 6.19997Z" fill="white"/>
<path d="M6.39999 11C6.39999 11.6628 5.86274 12.2 5.2 12.2C4.53726 12.2 4 11.6628 4 11C4 10.3373 4.53726 9.80005 5.2 9.80005C5.86274 9.80005 6.39999 10.3373 6.39999 11Z" fill="white"/>
<path d="M6.39999 15.8001C6.39999 16.4628 5.86274 17.0001 5.2 17.0001C4.53726 17.0001 4 16.4628 4 15.8001C4 15.1373 4.53726 14.6001 5.2 14.6001C5.86274 14.6001 6.39999 15.1373 6.39999 15.8001Z" fill="white"/>
</svg>
