<svg width="24" height="24" viewBox="0 0 24 24" fill="none" xmlns="http://www.w3.org/2000/svg">
<path fill-rule="evenodd" clip-rule="evenodd" d="M5.25 10.75C5.25 7.71243 7.71243 5.25 10.75 5.25C13.7876 5.25 16.25 7.71243 16.25 10.75C16.25 13.7876 13.7876 16.25 10.75 16.25C7.71243 16.25 5.25 13.7876 5.25 10.75ZM10.75 3.25C6.60786 3.25 3.25 6.60786 3.25 10.75C3.25 14.8921 6.60786 18.25 10.75 18.25C12.4605 18.25 14.0373 17.6774 15.2991 16.7134L19.0428 20.4571C19.4333 20.8476 20.0665 20.8476 20.457 20.4571C20.8475 20.0666 20.8475 19.4334 20.457 19.0429L16.7133 15.2992C17.6773 14.0374 18.25 12.4606 18.25 10.75C18.25 6.60786 14.8921 3.25 10.75 3.25Z" fill="currentColor"/>
</svg>
