<svg width="20" height="20" viewBox="0 0 20 20" fill="none" xmlns="http://www.w3.org/2000/svg">
<path fill-rule="evenodd" clip-rule="evenodd" d="M17.4167 2.67208C16.0248 3.40913 14.3378 4.27507 12.8666 4.9706C12.0963 5.33476 11.3719 5.65848 10.7741 5.89326C10.4759 6.01038 10.1955 6.11076 9.94883 6.18329C9.72588 6.24884 9.44531 6.31817 9.18056 6.31817H5.22222C4.7913 6.31817 3.95709 6.41257 3.26179 6.86632C2.63742 7.27379 2 8.04702 2 9.70832C2 11.4081 2.60415 12.2465 3.21078 12.695C3.87212 13.1839 4.69234 13.3211 5.22222 13.3211V14.3211V15.3211C4.43266 15.3211 3.14177 15.1311 2.02186 14.3032C0.847239 13.4349 0 11.9669 0 9.70832C0 7.41129 0.945913 5.98945 2.16876 5.19143C3.32069 4.43968 4.59759 4.31817 5.22222 4.31817H9.16989C9.16912 4.31815 9.16815 4.31826 9.16814 4.31817C9.16803 4.31707 9.2313 4.3096 9.38472 4.2645C9.55345 4.21489 9.77374 4.13742 10.043 4.03166C10.5802 3.82069 11.2585 3.5186 12.0118 3.16247C13.5154 2.45162 15.2658 1.55049 16.6811 0.798279C17.9149 0.142528 19.4167 1.03087 19.4167 2.43939V15.7605C19.4167 17.1516 18.0398 18.1218 16.7308 17.6593C15.5735 17.2505 13.8582 16.6557 12.3144 16.1641C11.5415 15.918 10.8216 15.701 10.2407 15.5465C9.9498 15.4691 9.70346 15.41 9.50818 15.371C9.4108 15.3515 9.33245 15.3383 9.27188 15.3302C9.24195 15.3262 9.21899 15.3238 9.20229 15.3224C9.18712 15.3212 9.1802 15.3211 9.1802 15.3211H5.22222V14.3211V13.3211H9.18056C9.57858 13.3211 10.1776 13.4602 10.7547 13.6137C11.3808 13.7802 12.1355 14.0082 12.9212 14.2584C14.4948 14.7595 16.2332 15.3624 17.397 15.7735C17.3993 15.7744 17.4008 15.7748 17.4017 15.7749L17.4029 15.7752C17.4033 15.7751 17.4064 15.7745 17.4107 15.7715C17.4141 15.769 17.4158 15.7669 17.4163 15.7661C17.4163 15.7657 17.4165 15.7642 17.4166 15.7634C17.4166 15.7626 17.4167 15.7617 17.4167 15.7605V2.67208Z" fill="currentColor"/>
<path d="M6 18.3333V15H8V19H6.66667C6.13333 19 6 18.5556 6 18.3333Z" fill="currentColor"/>
<path fill-rule="evenodd" clip-rule="evenodd" d="M5 14H9V20H6.66667C6.07408 20 5.6072 19.7307 5.3218 19.3343C5.07311 18.9889 5 18.6045 5 18.3333V14Z" fill="currentColor"/>
<path fill-rule="evenodd" clip-rule="evenodd" d="M9 8C9.55228 8 10 8.44772 10 9V14C10 14.5523 9.55228 15 9 15C8.44772 15 8 14.5523 8 14V9C8 8.44772 8.44772 8 9 8Z" fill="currentColor"/>
</svg>
