<svg width="22" height="23" viewBox="0 0 22 23" fill="none" xmlns="http://www.w3.org/2000/svg">
<path fill-rule="evenodd" clip-rule="evenodd" d="M9.58952 0.992552C10.3697 0.216473 11.6303 0.216471 12.4105 0.992552L21.4105 9.94518C21.7878 10.3206 22 10.8309 22 11.3631V21C22 22.1046 21.1046 23 20 23H15.3333C14.2288 23 13.3333 22.1046 13.3333 21L13.3333 13.6053H8.66667V21C8.66667 22.1046 7.77124 23 6.66667 23H2C0.895432 23 0 22.1046 0 21V11.3631C0 10.8309 0.212164 10.3206 0.589522 9.94518L9.58952 0.992552ZM20 11.3631L11 2.41049L2 11.3631L2 21H6.66667V13.6045C6.66667 12.4991 7.56302 11.6053 8.66667 11.6053H13.3333C14.4379 11.6053 15.3333 12.5007 15.3333 13.6053V21L20 21L20 11.3631Z" fill="currentColor"/>
</svg>
